<?xml version="1.0" standalone="no"?>
<!DOCTYPE svg PUBLIC "-//W3C//DTD SVG 20010904//EN"
 "http://www.w3.org/TR/2001/REC-SVG-20010904/DTD/svg10.dtd">
<svg version="1.0" xmlns="http://www.w3.org/2000/svg"
 width="693.000000pt" height="693.000000pt" viewBox="0 0 693.000000 693.000000"
 preserveAspectRatio="xMidYMid meet">
<metadata>
Created by potrace 1.14, written by Peter Selinger 2001-2017
</metadata>
<g transform="translate(0.000000,693.000000) scale(0.100000,-0.100000)"
fill="#000000" stroke="none">
<path d="M3920 6906 c-30 -7 -65 -18 -77 -24 -13 -7 -23 -10 -23 -7 0 11 -116
-68 -158 -109 -104 -99 -139 -238 -101 -401 7 -27 12 -51 11 -52 -1 -2 6 -22
14 -45 36 -100 96 -296 102 -333 15 -93 8 -168 -22 -220 -34 -61 -112 -127
-208 -178 -157 -81 -311 -108 -458 -80 -36 7 -81 15 -100 19 -19 3 -38 8 -42
11 -14 8 -83 17 -115 14 -20 -2 -15 -17 6 -18 10 -1 68 -22 127 -48 59 -25
123 -48 141 -51 80 -13 242 -4 314 16 18 6 37 10 40 10 6 0 -2 -24 -44 -140
-3 -8 -16 -46 -29 -83 l-24 -69 -73 72 c-84 82 -129 107 -164 89 -29 -16 -37
-28 -37 -60 0 -30 65 -102 131 -146 45 -29 48 -39 17 -49 -12 -3 -53 -21 -92
-39 -151 -70 -235 -82 -339 -46 -161 56 -319 230 -362 400 -9 34 -15 64 -13
66 2 2 53 -10 113 -25 168 -44 271 -53 317 -29 13 7 24 10 26 8 1 -2 18 9 38
24 41 34 39 45 -5 23 -43 -22 -51 -20 -51 14 0 32 -3 33 -35 21 -13 -5 -31 -3
-48 6 -19 9 -47 13 -78 10 -48 -5 -54 -1 -50 31 1 7 -12 12 -34 13 -19 1 -38
2 -42 3 -17 3 -123 78 -123 87 0 28 182 -7 228 -44 15 -12 16 5 0 21 -22 22
-1 23 52 2 58 -23 67 -21 51 8 -6 12 -11 23 -11 26 0 7 50 -14 70 -29 8 -6 37
-20 63 -29 62 -23 102 -15 139 26 28 31 78 126 78 147 0 7 -25 11 -62 12 -311
2 -587 25 -678 56 -8 3 -25 7 -37 9 -13 1 -90 35 -172 74 -182 86 -222 93
-322 60 -38 -13 -69 -27 -69 -31 0 -4 37 -25 83 -47 100 -47 144 -83 168 -137
17 -38 26 -125 13 -125 -3 0 -43 23 -89 50 -107 65 -200 108 -249 116 -21 3
-46 7 -55 9 -26 5 -114 -28 -139 -51 -18 -17 -20 -23 -10 -31 10 -9 73 -39 98
-48 8 -3 39 -16 150 -63 239 -101 319 -165 348 -282 6 -24 10 -45 9 -46 -3 -2
-292 136 -565 268 -46 22 -86 38 -89 35 -11 -11 53 -110 102 -159 50 -50 160
-129 225 -161 19 -10 42 -22 50 -27 8 -5 74 -44 145 -85 147 -85 130 -75 224
-138 149 -101 267 -208 349 -316 53 -69 56 -75 38 -85 -11 -6 -66 -46 -123
-89 -158 -117 -195 -127 -292 -79 -64 31 -181 143 -197 187 -17 48 0 91 48
122 35 23 50 27 107 26 85 -1 165 -35 209 -89 39 -47 41 -83 7 -120 -29 -32
-76 -35 -106 -8 -36 33 -15 56 55 59 43 1 42 18 -1 41 -62 34 -124 17 -148
-39 -19 -45 -10 -77 34 -119 75 -71 134 -61 278 49 l72 55 -27 48 c-15 27 -40
65 -57 86 -16 20 -32 40 -35 43 -20 25 -141 119 -219 170 -78 51 -279 156
-411 214 -199 88 -244 100 -317 83 -32 -7 -103 -77 -103 -101 0 -7 42 -29 92
-50 51 -21 110 -45 131 -55 l38 -16 -27 -15 c-28 -15 -87 -16 -206 -3 -65 6
-68 6 -98 -24 -36 -36 -37 -47 -7 -57 12 -4 24 -9 27 -10 3 -1 14 -6 25 -9 11
-4 38 -15 60 -25 l40 -18 -44 -27 c-35 -22 -59 -29 -114 -32 -39 -3 -73 -7
-76 -10 -3 -3 -7 -23 -7 -45 -2 -36 1 -40 30 -47 17 -5 32 -16 34 -25 4 -19
-36 -47 -81 -56 -31 -7 -32 -8 -31 -61 0 -30 4 -102 9 -160 4 -58 9 -132 11
-165 1 -33 5 -94 8 -135 3 -41 8 -111 11 -155 3 -44 7 -105 10 -135 3 -30 7
-95 10 -144 4 -69 9 -93 24 -105 10 -9 42 -36 71 -61 55 -48 104 -90 157 -138
48 -42 61 -119 49 -302 -5 -82 -9 -97 -29 -113 -12 -10 -38 -33 -58 -50 -57
-50 -135 -117 -153 -130 -20 -15 -13 -24 59 -72 125 -83 240 -227 260 -325 21
-96 12 -161 -36 -259 l-26 -55 -62 64 c-66 69 -98 124 -103 180 -3 33 -2 34
42 42 25 5 60 10 79 12 18 3 35 6 37 8 3 4 -598 382 -680 428 -22 12 -63 37
-92 55 l-53 34 -73 -75 c-40 -41 -74 -80 -76 -87 -2 -13 51 -52 240 -175 142
-93 221 -161 271 -234 36 -51 43 -68 54 -132 8 -43 -8 -28 -78 74 -34 50 -67
90 -73 91 -6 0 -26 2 -44 5 -17 2 -46 6 -62 7 -22 3 -49 22 -92 65 -37 37 -68
60 -78 58 -8 -3 -70 -17 -138 -32 -143 -32 -146 -42 -17 -58 134 -17 124 -11
216 -117 13 -15 30 -19 82 -19 l66 0 66 -66 c37 -36 65 -68 62 -70 -2 -2 -31
9 -64 25 -84 42 -208 82 -255 83 -42 0 -57 -12 -83 -71 -16 -36 -20 -71 -7
-71 24 -1 153 -33 205 -51 190 -67 421 -234 503 -364 10 -16 21 -32 24 -35 4
-3 28 -38 55 -78 66 -99 126 -160 213 -216 96 -63 247 -129 322 -142 14 -2 36
-7 50 -10 14 -4 39 -8 55 -10 62 -8 79 -14 66 -27 -8 -8 -44 -12 -99 -11 -73
0 -107 7 -212 41 -161 52 -177 56 -182 40 -2 -6 -3 -46 -2 -89 3 -88 21 -130
66 -158 32 -19 96 -35 105 -26 10 10 -28 57 -53 66 -20 8 -25 16 -22 38 4 34
34 40 93 17 48 -18 75 -59 77 -120 l1 -35 54 0 53 0 0 61 0 61 128 -5 c140 -5
169 -10 216 -34 61 -31 60 -57 -4 -58 -49 -1 -55 -14 -22 -48 43 -43 143 -34
191 17 26 27 51 109 43 139 -4 17 -52 49 -69 46 -4 -1 -48 -1 -98 0 -81 1 -88
3 -70 16 47 34 47 33 18 88 -36 68 -123 155 -196 195 -73 41 -244 105 -262 98
-11 -4 -11 -14 -1 -60 23 -99 64 -131 196 -151 l45 -7 -25 21 c-38 31 -40 33
-105 80 l-60 44 48 -7 c61 -7 117 -36 152 -78 29 -34 60 -97 52 -105 -3 -2
-22 0 -43 6 -22 5 -50 12 -64 15 -14 3 -45 10 -70 16 -25 6 -54 12 -65 14 -68
15 -81 18 -87 25 -5 4 -10 35 -13 70 -11 136 -26 163 -160 276 -38 32 -91 85
-118 118 -52 65 -127 210 -130 253 -2 27 0 27 46 27 27 -1 51 -4 54 -6 3 -3 0
-22 -7 -43 -13 -40 -5 -53 35 -55 11 0 29 -2 40 -4 11 -1 37 -5 57 -8 123 -19
207 -62 313 -160 126 -117 518 -283 783 -332 54 -10 78 -15 123 -25 26 -6 55
-13 65 -15 11 -2 21 -4 24 -5 3 -1 10 -3 15 -4 15 -3 94 -26 145 -43 79 -26
184 -81 230 -121 l44 -39 -55 0 c-61 -1 -144 -34 -189 -75 -59 -54 -57 -56
-56 38 1 47 -3 89 -9 92 -11 7 -139 17 -168 13 -4 -1 6 -27 24 -58 17 -32 45
-83 61 -113 l30 -55 -82 83 c-45 45 -101 95 -124 111 -74 50 -173 79 -245 72
-7 0 38 -39 100 -85 63 -47 119 -89 124 -93 6 -5 45 -35 88 -66 42 -31 77 -59
77 -61 0 -14 -219 124 -311 196 -20 15 -41 28 -47 28 -6 0 -12 4 -14 9 -5 13
-140 87 -203 110 -65 24 -145 37 -145 23 0 -6 28 -38 62 -72 70 -69 180 -145
313 -215 175 -93 221 -118 295 -168 41 -28 77 -53 80 -57 18 -22 205 -149 208
-140 2 5 -1 31 -6 57 -26 127 -9 274 38 326 23 26 36 31 76 33 62 3 79 -7 105
-59 28 -55 48 -77 70 -77 15 0 17 7 14 47 -4 58 -20 138 -34 176 -15 38 -14
41 5 23 24 -25 33 -19 23 16 -12 44 -66 98 -78 79 -5 -7 -10 -9 -12 -4 -2 6
-25 26 -51 45 -52 40 -147 74 -313 113 -157 37 -463 130 -552 167 -16 6 -30
12 -33 12 -23 5 -142 59 -215 99 -346 188 -502 434 -542 852 -15 160 -5 1725
12 1995 3 41 8 112 10 158 3 46 6 86 8 90 4 14 -15 12 -56 -6 -51 -23 -143
-96 -214 -171 l-52 -55 18 -30 c86 -140 92 -171 93 -483 1 -252 -2 -264 -81
-340 -66 -64 -171 -137 -172 -121 -3 31 2 359 6 413 7 95 21 208 30 255 3 14
8 41 11 60 10 63 70 225 106 291 56 97 142 182 228 221 87 40 260 63 338 44
39 -9 66 -17 87 -26 11 -4 35 -13 53 -20 17 -7 32 -17 32 -22 0 -5 -4 -7 -8
-4 -5 3 -24 8 -43 11 -214 39 -299 -33 -289 -245 4 -88 3 -1151 -2 -1590 -2
-271 1 -361 17 -450 3 -14 7 -41 10 -60 16 -101 93 -314 130 -357 5 -7 16 -19
23 -27 6 -8 12 -19 12 -23 0 -5 8 -16 18 -24 9 -9 32 -32 50 -53 103 -115 357
-252 664 -357 51 -17 98 -35 103 -39 6 -4 23 -10 39 -14 56 -14 358 -136 439
-178 97 -51 175 -125 199 -190 13 -36 16 -79 15 -185 0 -76 -5 -141 -10 -144
-5 -4 -24 -3 -43 1 -19 4 -34 5 -34 1 0 -4 13 -25 30 -47 66 -87 27 -145 -175
-255 -52 -28 -48 -38 49 -147 39 -42 93 -79 103 -69 2 3 -3 19 -11 36 -30 57
-23 106 17 140 19 15 16 26 67 -229 40 -197 45 -218 54 -209 4 5 55 233 60
269 4 31 26 139 33 163 4 16 7 15 30 -9 22 -23 24 -34 19 -71 -3 -23 -11 -51
-18 -62 -20 -33 -2 -35 44 -4 38 25 138 142 138 162 0 4 -29 29 -65 55 -36 26
-72 54 -80 62 -7 8 -17 14 -20 14 -11 0 -95 72 -95 81 0 5 18 32 40 60 22 28
40 55 40 59 0 5 -14 5 -31 0 -41 -12 -44 -3 -44 160 0 158 13 196 87 270 67
66 147 111 399 223 31 14 164 64 295 112 330 120 460 183 579 279 72 59 112
102 160 176 96 146 142 316 159 576 6 91 8 2003 2 2031 -11 55 -55 98 -111
111 -44 9 -67 9 -170 -3 -38 -4 -68 -5 -65 -2 7 7 178 54 230 64 87 15 197 5
280 -26 69 -26 89 -40 165 -117 95 -95 168 -264 200 -459 22 -138 25 -177 32
-458 l5 -239 -43 29 c-24 15 -46 30 -49 33 -3 3 -27 23 -53 44 -26 22 -59 59
-73 82 -25 43 -26 48 -28 271 -3 304 15 399 89 479 14 15 22 30 18 33 -5 3
-21 24 -38 46 -57 78 -180 175 -266 212 l-26 11 13 -67 c20 -105 23 -135 31
-239 9 -131 9 -1877 0 -1972 -34 -329 -122 -511 -337 -691 -162 -135 -316
-207 -748 -351 -152 -51 -279 -93 -282 -93 -3 -1 -12 -4 -20 -8 -24 -9 -170
-54 -232 -72 -32 -8 -58 -19 -58 -23 0 -5 -7 -17 -16 -28 -8 -10 -13 -13 -9
-6 10 19 -10 14 -37 -11 -31 -27 -48 -58 -48 -88 l0 -22 25 23 c14 13 25 18
25 12 0 -7 -4 -12 -8 -12 -20 0 -43 -99 -40 -174 l3 -78 28 22 c15 12 37 41
48 65 21 45 52 65 99 65 107 0 150 -112 126 -330 -4 -36 -9 -73 -12 -82 -9
-30 -36 -46 366 217 171 112 280 183 485 316 66 43 125 82 131 87 5 5 29 20
52 33 23 13 42 27 42 32 0 23 -157 -21 -270 -76 -70 -35 -292 -171 -401 -247
-29 -21 -145 -80 -155 -80 -4 0 80 66 187 146 107 80 198 149 203 154 23 23
-134 -7 -204 -38 -47 -22 -48 -23 -163 -132 -100 -95 -100 -95 -72 -45 16 28
36 61 46 75 9 14 17 28 18 33 0 4 7 20 15 36 18 35 14 41 -27 36 -18 -3 -57
-7 -87 -10 l-55 -6 3 -91 3 -91 -42 37 c-67 57 -138 87 -203 87 l-55 0 22 22
c46 44 110 81 220 126 31 12 245 67 292 74 44 7 223 54 273 71 23 8 42 13 42
9 0 -3 6 -1 13 4 6 6 37 18 67 28 30 10 82 30 115 45 33 14 63 27 68 28 46 9
202 103 284 170 129 106 192 144 259 156 16 3 40 8 54 11 14 3 41 7 60 10 19
2 44 6 55 9 11 2 23 5 27 5 4 1 4 11 2 23 -3 13 -8 33 -11 44 -4 18 0 22 24
25 15 2 38 3 50 1 l22 -3 -18 -47 c-20 -52 -29 -78 -33 -90 -1 -4 -19 -41 -41
-82 -64 -122 -150 -224 -242 -286 -48 -32 -158 -84 -180 -84 -8 0 -15 -4 -15
-10 0 -6 43 -10 110 -10 61 0 110 -4 110 -8 0 -6 -267 -142 -290 -147 -3 0
-21 -9 -40 -18 -33 -17 -32 -15 15 27 28 25 55 44 61 42 18 -7 160 64 146 73
-10 6 -57 7 -57 1 0 0 -36 -2 -80 -3 l-81 -2 -147 -108 c-81 -60 -147 -110
-147 -112 0 -3 14 -20 30 -39 17 -19 27 -37 23 -39 -4 -3 -30 -8 -58 -11 -27
-4 -59 -8 -70 -10 -11 -2 -44 -7 -73 -11 -29 -4 -54 -10 -56 -14 -3 -4 23 -20
57 -36 34 -15 107 -50 161 -77 55 -26 101 -47 102 -45 2 2 -16 25 -41 52 -44
50 -48 64 -17 63 15 -1 81 7 152 17 14 2 52 6 86 10 l61 6 -1 -75 c-1 -42 1
-76 4 -76 3 0 48 40 100 90 93 88 120 108 100 73 -6 -10 -23 -51 -39 -90 -33
-82 -27 -89 36 -44 71 51 110 115 142 230 20 72 16 89 -16 72 -89 -46 -250
-99 -318 -103 -26 -2 -102 15 -126 28 -40 20 -42 31 -6 31 117 1 325 58 437
120 135 74 212 155 352 367 143 216 372 363 657 421 l55 11 -38 42 c-22 23
-41 40 -44 37 -3 -2 -12 1 -20 8 -10 7 -47 12 -101 12 -119 -1 -228 -38 -328
-113 -39 -29 -39 -25 -13 60 69 225 368 465 613 494 29 4 53 7 54 8 1 1 -7 16
-19 33 -51 71 -159 113 -278 108 -84 -4 -89 -5 -144 -28 -49 -22 -108 -70
-208 -170 -102 -101 -206 -177 -331 -242 -37 -20 -66 -39 -63 -44 5 -7 53 -12
154 -14 35 -1 39 -8 19 -29 -6 -7 -48 -55 -92 -106 -43 -50 -82 -89 -85 -85
-4 5 -19 37 -35 73 -80 182 13 388 252 563 l63 45 -77 69 c-42 37 -96 86 -120
108 l-43 40 -6 95 c-7 113 -7 120 2 190 4 30 8 63 9 72 2 19 33 51 125 128 36
30 67 57 70 60 3 3 21 19 40 36 19 17 36 35 37 40 1 5 4 56 8 114 7 116 11
173 20 300 6 90 12 176 20 300 2 41 7 109 11 150 4 41 7 95 8 120 1 42 0 44
-33 51 -50 10 -81 30 -81 51 0 18 37 40 53 31 4 -2 7 2 8 9 5 57 4 80 -4 85
-5 3 -35 6 -67 5 -60 0 -124 22 -149 51 -11 15 -10 18 15 27 16 6 36 13 44 17
8 3 17 7 20 7 3 1 10 4 15 7 6 4 22 9 38 13 26 6 27 7 13 34 -28 55 -53 59
-221 36 -37 -4 -61 -2 -90 11 l-40 16 35 17 c19 10 79 35 133 56 53 21 97 41
97 45 0 9 -32 55 -52 75 -23 22 -78 44 -103 40 -11 -1 -37 -5 -58 -8 -21 -4
-46 -11 -55 -16 -9 -5 -66 -30 -127 -56 -309 -131 -542 -273 -668 -408 -31
-34 -107 -148 -107 -161 0 -9 131 -105 176 -130 41 -22 59 -26 87 -21 75 14
140 85 130 141 -7 33 -47 72 -81 76 -43 6 -65 0 -97 -26 l-30 -24 50 -1 c55 0
77 -13 67 -39 -25 -65 -116 -55 -143 17 -6 17 -4 34 7 58 33 69 134 118 240
117 53 0 69 -5 98 -27 22 -16 39 -40 45 -62 6 -20 11 -185 11 -373 1 -328 4
-475 15 -750 6 -157 6 -481 0 -561 -2 -30 -6 -91 -9 -135 -3 -44 -8 -89 -10
-100 -2 -11 -9 -54 -15 -97 -16 -105 -61 -265 -106 -378 -20 -52 -41 -99 -45
-103 -4 -5 -27 1 -51 11 -56 26 -161 61 -213 72 -23 5 -51 11 -64 14 -13 3
-43 6 -68 7 -43 3 -44 4 -44 36 0 18 1 33 3 33 2 0 87 -17 190 -39 l187 -39
-2 44 c0 24 -4 48 -8 53 -3 6 -31 15 -61 21 -30 5 -67 12 -84 15 -16 3 -45 8
-64 11 -32 5 -57 11 -91 19 -8 2 -27 4 -41 4 -17 1 -28 8 -32 20 -7 30 5 40
48 36 47 -5 180 -15 248 -19 26 -1 47 -1 47 1 0 2 -7 17 -15 32 -17 34 -70 61
-133 67 -63 7 -94 12 -99 18 -2 2 24 18 59 36 98 50 164 98 213 154 43 48 91
148 80 166 -3 4 -22 11 -42 15 -21 5 -42 10 -48 11 -5 2 -20 6 -32 9 -16 5
-23 2 -28 -17 -14 -48 -86 -156 -137 -207 -54 -53 -164 -116 -249 -141 l-45
-13 29 -106 c16 -58 31 -142 34 -186 2 -44 7 -83 11 -86 7 -6 85 -36 285 -110
l88 -32 -23 -23 c-66 -64 -386 -242 -563 -312 -27 -11 -85 -36 -128 -56 -42
-20 -79 -36 -82 -36 -8 0 -239 -114 -245 -121 -3 -3 -13 -9 -23 -12 -12 -5 2
22 39 75 92 131 114 165 114 175 0 14 -92 29 -130 22 -57 -12 -104 -88 -162
-266 -17 -51 -34 -93 -38 -93 -4 0 -6 618 -5 1373 l3 1372 80 237 c44 130 83
242 87 248 7 11 20 -1 60 -56 91 -126 135 -152 213 -126 23 7 42 17 42 21 0 4
-10 21 -22 38 -13 16 -32 42 -43 58 -11 15 -25 32 -30 39 -33 37 -75 95 -75
105 0 6 6 11 13 11 8 0 68 15 135 33 l122 34 161 -89 c88 -48 162 -88 164 -88
2 0 55 51 118 113 63 61 120 117 128 122 150 112 307 212 559 353 105 59 211
135 256 185 53 58 98 133 84 142 -4 3 -84 -32 -177 -77 -92 -45 -170 -83 -173
-83 -8 -2 -242 -114 -274 -132 l-29 -16 7 39 c24 127 97 186 376 306 63 28
120 51 125 52 24 6 105 51 105 59 0 15 -28 37 -67 53 -53 22 -130 19 -204 -9
-61 -23 -226 -114 -261 -144 -14 -13 -17 -10 -23 29 -4 24 -9 54 -12 67 -5 32
-6 34 -4 46 0 6 66 44 146 85 80 40 142 77 137 82 -16 16 -122 48 -161 48 -21
0 -55 -7 -75 -15 -20 -8 -38 -15 -41 -15 -3 0 -56 -24 -118 -54 -104 -51 -183
-78 -262 -91 -16 -3 -41 -8 -55 -10 -14 -3 -47 -8 -75 -11 -27 -3 -66 -7 -85
-9 -19 -2 -132 -7 -250 -10 -118 -4 -216 -8 -217 -9 -5 -5 46 -103 64 -123 28
-31 81 -51 123 -46 19 3 65 15 102 28 l67 23 -10 -25 c-5 -14 -8 -28 -5 -30 2
-3 26 5 51 16 60 26 73 27 50 1 -24 -26 -16 -25 81 8 73 26 155 33 154 13 -1
-3 -26 -23 -57 -45 -37 -26 -70 -40 -99 -44 -37 -4 -44 -8 -44 -27 0 -20 -4
-22 -47 -17 -27 2 -50 6 -52 8 -2 2 -10 -4 -19 -13 -11 -10 -27 -14 -54 -10
-38 5 -42 2 -39 -35 3 -22 -11 -23 -49 -3 -17 9 -30 12 -30 8 1 -38 91 -75
182 -74 38 0 72 2 76 5 4 2 23 7 42 10 19 3 73 17 120 30 46 14 87 23 91 20 4
-2 0 -30 -8 -62 -58 -224 -275 -414 -480 -421 -54 -2 -78 4 -178 44 -63 26
-127 50 -141 54 -25 6 -23 10 74 100 101 93 101 93 84 116 -22 30 -50 43 -81
38 -31 -4 -95 -54 -143 -110 -26 -30 -39 -39 -45 -30 -4 6 -38 84 -75 172
l-67 159 42 20 c153 69 242 178 273 334 16 82 64 170 92 171 6 1 12 6 12 11 0
6 16 10 37 10 54 0 105 -57 128 -144 10 -36 21 -66 26 -66 6 0 21 34 29 65 1
6 6 18 11 27 16 29 13 132 -5 166 -33 63 -95 101 -176 107 -49 3 -62 21 -35
48 8 9 15 20 15 26 0 19 111 123 148 138 66 28 120 0 138 -71 13 -55 34 -17
34 64 0 196 -265 187 -490 -17 -32 -29 -61 -53 -65 -53 -9 0 2 154 15 209 29
119 109 225 210 276 55 28 158 54 198 50 37 -4 20 18 -39 48 -63 32 -138 39
-219 23z m-415 -1548 c16 -40 32 -77 37 -82 4 -6 8 -18 8 -28 0 -10 5 -18 10
-18 6 0 10 -3 9 -7 -2 -12 9 -40 44 -122 l32 -73 65 -25 c36 -14 79 -31 97
-39 17 -8 34 -14 38 -14 3 0 26 -9 51 -20 24 -11 55 -25 69 -30 26 -10 34 -26
13 -27 -7 -1 -49 -8 -93 -17 -44 -8 -91 -17 -105 -20 -107 -21 -168 -60 -200
-131 -19 -41 -44 -133 -54 -195 -11 -68 -16 -91 -31 -160 -19 -83 -29 -90 -44
-32 -9 33 -66 263 -76 303 -2 9 -16 47 -32 85 -29 68 -31 69 -89 91 -32 12
-107 37 -166 55 -60 18 -108 36 -108 39 0 4 10 10 23 14 12 4 27 9 32 10 6 2
66 26 134 53 142 57 120 29 229 292 59 140 72 170 76 170 1 0 16 -33 31 -72z
m-225 -659 c-25 -87 -135 -211 -228 -257 -32 -16 -33 -15 -58 11 -55 59 -48
96 31 165 63 55 180 111 237 112 25 0 26 -2 18 -31z m-705 -256 c4 -27 9 -59
11 -73 4 -33 25 -46 86 -53 47 -6 93 -27 58 -27 -7 0 -37 -11 -65 -25 l-53
-25 -17 -72 c-18 -76 -31 -101 -39 -77 -48 145 -38 134 -158 183 -40 16 -46
22 -25 24 6 0 22 3 35 6 12 3 32 8 45 11 81 17 77 14 78 56 1 21 3 48 4 59 1
11 3 29 4 40 2 40 29 21 36 -27z m541 -334 c2 -7 7 -40 13 -73 6 -32 12 -61
14 -63 5 -5 27 -9 92 -17 27 -4 51 -9 53 -11 2 -1 -26 -22 -62 -46 -66 -43
-85 -71 -92 -138 -5 -42 -13 -35 -46 38 l-33 71 -73 29 c-41 16 -70 31 -66 34
5 2 36 10 69 17 79 16 88 22 92 61 2 19 5 52 7 74 5 50 4 47 18 43 6 -2 13
-11 14 -19z m-532 -102 c7 -7 16 -25 20 -40 8 -33 -17 -38 -34 -6 -26 47 -17
77 14 46z m-473 -167 c13 -62 21 -71 65 -77 22 -3 55 -8 74 -12 l35 -7 -67
-29 -66 -29 -21 -70 c-12 -39 -21 -77 -21 -83 0 -32 -18 -7 -40 55 -12 37 -27
71 -32 77 -4 5 -38 21 -75 36 -36 14 -62 28 -57 31 5 3 41 13 81 22 79 20 76
16 89 121 6 51 8 56 16 35 5 -14 14 -45 19 -70z m500 3 c3 -37 -3 -58 -19 -70
-25 -20 -42 -16 -38 10 3 12 5 27 5 34 1 14 29 43 42 43 5 0 10 -8 10 -17z
m-1193 -367 l-3 -75 -92 62 c-51 34 -92 67 -92 72 0 6 21 27 47 47 26 21 67
56 92 79 l45 41 3 -76 c2 -42 2 -109 0 -150z m1202 174 l0 -50 -34 0 c-31 0
-33 2 -31 30 3 33 30 70 52 70 9 0 13 -15 13 -50z m3039 -57 c36 -34 64 -63
61 -65 -17 -14 -170 -108 -175 -108 -3 0 -3 35 -1 78 3 42 6 103 7 135 3 66
-9 70 108 -40z m-2528 20 c5 -13 9 -35 9 -47 0 -22 -7 -24 -50 -17 -4 1 -5 58
-1 93 2 16 33 -6 42 -29z m-513 -161 l3 -52 -35 0 c-31 0 -34 3 -30 23 3 12 5
34 6 49 1 25 18 39 43 33 6 -1 11 -25 13 -53z m813 41 c0 -5 3 -91 5 -193 2
-102 5 -265 7 -362 2 -98 3 -178 1 -178 -4 0 -79 124 -96 160 -66 139 -81 199
-81 311 0 88 28 155 89 216 49 49 73 64 75 46z m-287 -49 c9 -8 16 -21 17 -27
0 -7 2 -22 5 -34 3 -20 0 -23 -31 -23 l-35 0 0 50 c0 54 14 65 44 34z m-1006
-81 c3 -58 2 -62 -18 -58 -37 7 -37 5 -31 106 1 10 9 16 24 15 20 -1 22 -7 25
-63z m496 -109 c-1 -25 -5 -48 -7 -51 -9 -8 -47 21 -53 41 -8 23 13 64 35 68
23 5 28 -6 25 -58z m-483 -24 c1 -5 1 -19 1 -30 0 -70 0 -71 -34 -68 -34 3
-35 7 -29 93 1 17 60 22 62 5z m1073 -52 c10 -24 24 -56 32 -71 8 -16 14 -33
14 -38 0 -5 9 -28 19 -52 11 -23 34 -78 51 -122 18 -44 39 -95 47 -113 8 -19
13 -35 11 -38 -6 -5 -105 62 -168 115 -126 105 -169 195 -130 270 15 31 82 91
101 91 3 0 14 -19 23 -42z m-593 -73 c1 -8 1 -31 1 -50 0 -54 0 -55 -27 -55
-24 0 -25 3 -25 60 0 57 1 60 25 60 15 0 25 -6 26 -15z m-480 -50 c7 -79 4
-90 -24 -93 -26 -3 -27 -2 -27 46 0 27 3 51 6 55 10 9 44 4 45 -8z m960 -115
c38 -36 214 -197 238 -217 24 -21 24 -23 6 -23 -17 0 -138 20 -215 35 -64 13
-162 30 -227 41 -24 4 -43 11 -43 16 0 5 20 35 45 66 25 31 48 62 53 67 4 6
20 27 36 48 l28 39 32 -29 c17 -15 38 -35 47 -43z m-465 -89 l0 -51 -33 0
c-33 0 -33 0 -33 48 0 57 3 61 38 58 25 -3 27 -7 28 -55z m-492 -25 c-1 -12
-3 -27 -3 -33 -1 -13 -35 -13 -47 0 -10 10 4 54 23 73 16 15 17 15 23 -1 4
-10 5 -28 4 -39z m-723 -18 c1 -7 2 -47 3 -89 l1 -77 -30 21 c-16 12 -36 27
-43 34 -8 7 -22 18 -33 23 -30 17 -22 33 34 66 60 37 67 39 68 22z m4168 -27
l44 -38 -48 -44 c-26 -24 -51 -45 -56 -47 -7 -3 -7 30 0 151 1 24 10 21 60
-22z m-2669 -45 c41 -3 84 -7 95 -10 11 -2 36 -6 55 -10 19 -3 46 -8 60 -11
14 -3 65 -12 115 -21 119 -20 128 -30 39 -40 -27 -3 -60 -7 -74 -10 -14 -2
-45 -7 -70 -10 -25 -3 -56 -7 -70 -10 -14 -3 -43 -7 -65 -10 -22 -2 -56 -6
-75 -10 -19 -3 -48 -7 -65 -9 -46 -6 -116 -16 -155 -22 -33 -5 -34 -4 -19 13
8 11 44 54 78 97 34 42 66 75 69 73 4 -2 41 -7 82 -10z m-769 -35 c4 -1 6 -20
5 -43 -1 -41 -2 -43 -33 -44 -32 -1 -33 0 -33 41 0 48 5 56 34 50 12 -2 24 -4
27 -4z m472 -26 c7 -16 -24 -77 -40 -83 -9 -3 -13 11 -13 46 0 49 10 64 37 55
6 -3 14 -10 16 -18z m813 -163 c2 -94 10 -87 -111 -97 -135 -12 -170 -15 -195
-20 -14 -2 -52 -7 -85 -11 -33 -3 -69 -8 -80 -10 -11 -3 -36 -6 -55 -9 -36 -5
-47 -7 -140 -26 -135 -27 -256 -64 -405 -124 -239 -96 -294 -107 -338 -68 -24
22 -59 95 -49 104 4 4 41 21 82 37 274 110 555 201 730 236 14 3 36 8 50 11
14 3 36 7 50 10 14 3 36 7 49 10 13 2 49 7 80 11 31 3 59 8 62 10 3 1 50 6
105 10 54 3 100 7 101 8 1 1 35 2 75 2 l73 -1 1 -83z m-1281 27 c11 -12 -17
-67 -40 -77 -24 -11 -25 -11 -25 32 0 23 2 45 5 48 7 6 52 4 60 -3z m1281
-297 c0 -57 -2 -105 -6 -107 -6 -3 -81 -10 -249 -20 -40 -3 -76 -7 -80 -9 -4
-3 -13 -1 -20 3 -10 6 -7 22 14 72 34 80 40 87 62 66 10 -9 34 -30 53 -46 l35
-29 -40 1 c-31 2 -40 6 -39 20 1 9 -1 17 -5 17 -9 0 -42 -56 -36 -62 3 -2 28
-1 57 2 29 4 65 6 81 5 41 -4 32 15 -30 65 -30 25 -69 58 -86 74 l-31 28 -7
-23 c-26 -96 -97 -179 -185 -216 -52 -23 -192 -58 -199 -51 -3 2 7 41 20 86
l25 81 33 -15 c17 -8 45 -20 60 -26 40 -15 20 -29 -26 -18 -37 8 -39 7 -52
-23 -7 -18 -12 -33 -11 -34 3 -4 189 47 195 52 2 3 2 7 0 9 -6 6 -208 106
-214 106 -3 0 -5 -6 -5 -12 -1 -28 -79 -163 -115 -199 -47 -48 -148 -97 -232
-115 -17 -3 -16 12 2 72 9 27 18 60 21 74 3 13 7 26 9 28 6 7 105 -41 105 -50
0 -4 -17 -5 -39 -2 -36 6 -39 5 -44 -22 -3 -16 -4 -30 -2 -32 5 -6 155 41 155
48 0 4 -33 27 -72 51 -40 23 -83 49 -95 56 -20 14 -22 11 -54 -84 -18 -54 -32
-102 -31 -106 7 -24 -38 -13 -115 28 -106 57 -110 60 -94 79 16 19 202 100
316 138 114 37 285 80 379 94 22 3 43 7 46 9 3 2 35 6 72 9 37 4 77 9 90 11
13 3 77 8 143 11 66 4 121 7 122 8 2 1 29 2 60 1 l58 -1 1 -102z m-1815 -233
l29 -61 -46 7 c-67 10 -86 14 -92 19 -2 3 8 35 24 71 33 76 32 76 85 -36z
m1815 -8 c0 -58 -4 -94 -10 -96 -6 -2 -38 -6 -71 -9 -33 -3 -71 -8 -84 -10
-13 -3 -55 -8 -92 -11 -78 -7 -76 -13 -26 82 25 49 29 52 52 43 47 -18 85 -40
85 -50 0 -17 -70 -12 -76 5 -9 23 -18 18 -31 -16 l-12 -31 52 6 c29 4 67 9 86
13 l33 6 -68 63 c-38 35 -73 65 -79 67 -5 2 -28 -25 -51 -59 -84 -128 -173
-189 -325 -223 -28 -6 -39 -6 -39 3 -1 19 64 166 73 166 9 0 97 -50 97 -55 0
-1 -17 1 -38 5 -31 5 -38 4 -39 -9 -1 -9 -3 -23 -5 -31 -2 -11 4 -14 22 -12
41 4 130 32 130 41 0 4 -39 30 -86 58 l-87 51 34 21 c61 37 150 58 284 67 50
4 91 7 92 8 1 0 41 1 90 0 l88 0 1 -93z m1951 82 c-4 -3 -2 -12 3 -19 6 -6 13
-20 15 -30 2 -11 7 -29 10 -40 7 -23 -6 -29 -85 -40 l-39 -6 31 71 c24 53 37
71 52 71 10 0 16 -3 13 -7z m-2557 -90 c0 -25 -65 -171 -86 -194 -9 -10 -22
-19 -28 -19 -6 0 -5 5 2 12 14 14 16 28 3 28 -6 0 -48 18 -95 41 -84 40 -106
42 -106 13 0 -8 -4 -14 -10 -14 -14 0 -60 22 -60 30 0 3 35 16 78 29 113 34
202 61 247 76 53 18 55 18 55 -2z m606 -346 c0 -127 -4 -216 -9 -214 -5 1 -22
41 -37 87 -40 125 -83 213 -116 239 -24 19 -37 22 -74 17 -49 -6 -90 -16 -90
-22 0 -2 50 -73 110 -157 61 -83 106 -153 100 -155 -6 -2 -16 1 -23 6 -7 6
-39 25 -72 43 -33 18 -82 45 -110 61 -27 15 -105 58 -173 94 -67 37 -121 72
-119 78 6 20 130 75 217 95 95 23 117 27 210 36 36 4 66 7 67 8 1 1 28 2 60 2
l58 -1 1 -217z m-813 188 c41 -20 50 -40 15 -30 -33 10 -68 34 -68 46 0 6 3 9
8 7 4 -2 24 -12 45 -23z"/>
<path d="M3398 2575 c-1 -2 -28 -6 -58 -10 -30 -4 -57 -8 -59 -10 -2 -2 11
-24 29 -49 39 -54 55 -51 93 18 19 33 22 46 12 50 -7 2 -15 3 -17 1z"/>
<path d="M3169 2546 c-2 -3 -30 -6 -62 -7 -32 -1 -60 -5 -62 -9 -2 -4 15 -26
39 -49 l43 -43 27 53 c23 46 29 69 15 55z"/>
<path d="M2836 2493 c-2 -2 -41 -11 -58 -12 -20 -2 -3 -22 42 -50 l51 -31 19
46 c11 25 20 48 20 50 0 5 -69 2 -74 -3z"/>
<path d="M2583 2442 c-29 -8 -53 -19 -53 -24 0 -5 23 -20 52 -33 l52 -24 18
47 c10 26 18 48 18 50 0 5 -39 -1 -87 -16z"/>
<path d="M2352 2373 c-35 -14 -62 -26 -60 -28 10 -9 111 -65 113 -63 4 4 16
118 13 117 -2 0 -31 -12 -66 -26z"/>
<path d="M2128 2277 c-32 -11 -58 -23 -58 -26 1 -7 102 -52 107 -48 1 2 9 25
17 50 16 55 16 55 -66 24z"/>
<path d="M2948 6904 c-2 -1 -23 -3 -48 -5 -50 -3 -135 -30 -153 -48 -6 -6 -9
-11 -6 -12 2 0 29 -3 59 -6 117 -10 231 -70 295 -154 29 -39 86 -148 84 -164
0 -3 3 -25 6 -48 9 -61 13 -137 8 -156 -3 -14 -15 -7 -56 31 -68 64 -155 122
-214 143 -27 9 -55 20 -63 24 -28 13 -128 3 -161 -16 -42 -25 -67 -77 -65
-135 1 -26 5 -50 8 -54 4 -3 19 6 34 21 71 71 151 69 223 -4 37 -36 91 -123
91 -145 0 -2 -23 -7 -52 -10 -137 -18 -198 -83 -193 -201 5 -94 65 -222 65
-138 0 39 46 134 78 160 44 36 86 30 135 -18 23 -22 41 -43 39 -45 -1 -2 4
-19 11 -37 8 -17 22 -66 32 -107 38 -156 94 -236 171 -242 42 -4 134 11 134
21 0 5 -21 31 -47 59 -64 66 -87 99 -103 146 -23 70 0 239 55 402 50 148 68
242 69 349 1 95 -2 117 -22 161 -54 118 -208 214 -369 227 -24 2 -44 3 -45 1z"/>
<path d="M4010 5478 c-96 -27 -115 -29 -220 -25 -82 3 -129 1 -162 -9 -51 -15
-63 -33 -25 -35 41 -2 101 -6 212 -14 61 -4 115 -7 120 -7 11 0 179 61 239 86
92 39 -29 42 -164 4z"/>
<path d="M3638 4288 c3 -29 6 -65 6 -80 1 -19 7 -28 18 -29 20 -2 18 -1 73
-17 22 -6 51 -13 65 -16 22 -4 98 -23 233 -57 34 -9 37 -13 37 -45 0 -29 -3
-34 -17 -30 -18 5 -87 21 -133 30 -14 2 -72 14 -129 25 -57 12 -105 20 -107
18 -2 -1 5 -21 15 -43 21 -46 65 -72 134 -80 129 -13 177 -26 207 -54 26 -24
43 -59 23 -47 -5 3 -53 8 -108 11 -55 4 -128 9 -162 12 -67 5 -72 2 -47 -34
28 -40 89 -63 175 -66 43 -1 82 -6 86 -9 3 -4 1 -7 -6 -7 -24 0 -146 -53 -189
-82 -91 -63 -171 -170 -186 -250 -5 -30 9 -36 67 -33 54 4 78 24 125 103 66
111 151 176 295 226 l72 25 -2 68 c0 37 -4 82 -6 98 -7 39 -20 175 -19 197 1
20 -12 29 -78 51 -25 9 -132 50 -239 92 -107 41 -198 75 -202 75 -4 0 -5 -24
-1 -52z"/>
<path d="M4815 4320 c-76 -28 -271 -98 -355 -127 -41 -14 -79 -29 -83 -33 -5
-4 -10 -48 -12 -96 -4 -115 -12 -177 -34 -241 -17 -49 -15 -76 5 -73 37 6 183
-56 234 -99 14 -12 35 -29 47 -40 12 -10 44 -58 71 -107 61 -110 79 -122 156
-105 54 12 56 13 49 39 -19 80 -85 173 -160 230 -43 33 -153 88 -186 94 -40 7
-13 23 40 24 32 0 74 4 93 9 43 9 96 47 103 75 5 19 2 20 -61 16 -194 -13
-258 -19 -264 -23 -15 -9 -8 15 13 40 25 33 61 44 212 62 66 8 90 19 120 55
34 40 36 72 5 66 -28 -6 -174 -36 -208 -42 -14 -3 -51 -11 -82 -18 -63 -14
-73 -11 -73 21 1 29 3 30 55 38 190 26 293 58 341 106 21 21 37 46 37 56 -1
10 2 35 6 56 8 43 5 44 -69 17z"/>
<path d="M4222 3673 c-27 -13 -107 -89 -126 -120 -10 -17 56 -95 103 -121 55
-31 133 -24 171 14 31 31 44 83 30 118 -13 32 -85 102 -118 114 -22 7 -36 6
-60 -5z"/>
<path d="M3895 3488 c9 -53 13 -79 14 -95 1 -7 33 -29 73 -49 39 -20 77 -41
83 -47 6 -7 46 -37 88 -67 43 -30 77 -59 77 -65 0 -6 -18 -21 -40 -35 -22 -14
-40 -28 -40 -32 0 -5 -5 -8 -10 -8 -6 0 -21 -9 -33 -21 -33 -31 -117 -76 -164
-88 -24 -7 -43 -13 -43 -14 0 -1 -3 -33 -6 -72 -3 -38 -7 -76 -9 -83 -4 -9 10
-11 58 -8 34 2 77 5 95 5 17 1 32 5 32 11 0 5 32 64 72 132 39 68 78 135 86
151 7 15 17 27 21 27 27 0 167 -200 187 -266 12 -44 20 -54 37 -55 12 0 50 -3
84 -5 l63 -5 -6 83 c-6 89 -7 91 -29 94 -36 5 -95 30 -140 59 -47 30 -156 131
-154 144 0 10 191 143 224 157 18 7 45 15 60 18 15 3 29 7 31 8 1 2 5 41 8 86
l5 84 -81 -6 c-91 -7 -98 -10 -98 -35 0 -50 -60 -149 -145 -240 -48 -50 -54
-54 -61 -36 -9 21 -162 286 -172 297 -4 4 -45 10 -91 13 l-84 6 8 -43z"/>
<path d="M3829 3287 c-75 -87 -87 -122 -58 -178 10 -20 39 -58 64 -84 l47 -48
35 39 c76 85 102 146 80 189 -22 44 -107 127 -126 124 -3 0 -22 -20 -42 -42z"/>
<path d="M4574 3284 c-60 -72 -68 -85 -69 -118 -2 -34 13 -69 42 -101 10 -11
30 -34 45 -52 l26 -32 29 21 c15 12 31 27 35 33 3 5 16 21 28 35 43 49 52 108
24 157 -15 25 -91 94 -112 101 -5 1 -26 -19 -48 -44z"/>
<path d="M3739 2966 c-2 -3 -16 -7 -29 -10 -75 -15 -85 -22 -82 -51 12 -104
132 -224 304 -304 l62 -29 -60 -7 c-105 -11 -125 -15 -142 -25 -36 -21 -51
-37 -57 -62 -7 -29 -27 -27 170 -13 167 13 168 13 170 -12 2 -25 -9 -29 -129
-38 -38 -3 -72 -8 -76 -10 -3 -2 -18 -6 -33 -9 -72 -13 -147 -74 -147 -121 l0
-23 172 44 c193 49 198 50 198 30 0 -43 -64 -77 -191 -101 -113 -22 -185 -62
-212 -117 -19 -38 -31 -111 -17 -106 4 2 120 46 258 98 l251 95 0 90 c0 92 22
218 48 268 13 26 12 28 -14 37 -15 6 -37 14 -48 19 -11 5 -36 15 -55 22 -113
41 -223 144 -278 261 -33 69 -49 88 -63 74z"/>
<path d="M4213 2902 c-42 -23 -123 -94 -123 -108 0 -23 108 -111 147 -121 32
-8 44 -6 75 11 39 22 118 92 118 104 0 16 -97 111 -123 121 -38 15 -56 13 -94
-7z"/>
<path d="M6320 2392 c-70 -6 -195 -56 -264 -106 -61 -44 -136 -127 -136 -150
0 -8 3 -8 8 -1 8 13 129 67 227 103 134 48 219 66 323 66 60 0 65 12 19 43
-58 39 -105 51 -177 45z"/>
<path d="M1451 1790 c17 -27 34 -52 39 -55 7 -4 60 85 60 101 0 2 -29 4 -65 4
l-65 0 31 -50z"/>
<path d="M5390 1776 c0 -15 44 -96 52 -96 5 0 68 95 68 103 0 2 -27 3 -60 3
-35 0 -60 -4 -60 -10z"/>
<path d="M1621 1640 c-21 -5 -21 -6 -4 -20 30 -25 91 -70 95 -70 2 0 5 15 6
33 1 17 5 40 8 49 4 15 -1 17 -39 15 -24 -1 -54 -4 -66 -7z"/>
<path d="M5212 1556 c2 -25 7 -48 11 -52 6 -7 106 66 107 79 0 4 -10 7 -22 7
-13 1 -40 3 -61 6 l-38 6 3 -46z"/>
</g>
</svg>
