<svg xmlns="http://www.w3.org/2000/svg" viewBox="0 0 240 240"><g transform="translate(0.000000,240.000000) scale(0.100000,-0.100000)" fill="currentColor" fill-opacity="0.65"><path d="M1598 2124 c-62 -33 -64 -90 -5 -182 l42 -67 0 -253 0 -254 -28 -24 -28 -24 -393 0 c-435 0 -440 1 -412 55 9 17 16 33 16 38 0 18 61 89 116 134 58 49 121 118 142 158 15 29 4 69 -26 98 -15 14 -74 58 -132 96 -89 61 -111 71 -148 71 -55 0 -91 -35 -93 -89 -7 -196 -12 -210 -77 -229 -21 -7 -46 -12 -55 -12 -24 0 -83 -38 -101 -65 -9 -14 -16 -46 -16 -74 0 -63 38 -111 102 -130 65 -19 86 -36 81 -64 -3 -14 -58 -77 -130 -148 -157 -156 -167 -174 -161 -293 3 -71 10 -101 28 -136 20 -37 25 -65 29 -162 5 -102 9 -120 27 -138 28 -29 76 -38 197 -40 56 0 113 -2 127 -4 14 -2 39 -4 56 -5 24 -1 44 -13 80 -51 31 -32 57 -50 72 -50 22 0 69 27 100 57 37 36 74 44 200 45 70 1 138 6 152 12 14 5 47 28 74 51 l50 40 132 2 c75 1 141 6 153 13 38 20 51 53 55 141 4 103 19 135 96 209 130 126 152 171 105 214 -14 13 -41 27 -59 30 -18 4 -42 16 -52 27 -18 20 -19 43 -19 393 l0 371 39 73 c36 69 38 76 27 112 -6 21 -17 43 -24 49 -22 17 -73 19 -130 4 -45 -11 -58 -11 -96 2 -55 19 -78 18 -113 -1z m114 -51 c3 -27 5 -28 58 -28 53 0 55 1 58 28 3 25 6 27 53 27 l49 0 0 -47 c0 -44 -4 -52 -52 -100 l-52 -53 -65 0 -65 0 -58 57 c-49 49 -58 63 -58 94 0 19 3 39 7 42 3 4 32 7 64 7 55 0 58 -1 61 -27z m-827 -216 c93 -61 141 -99 142 -112 3 -22 -162 -203 -174 -192 -3 4 4 44 16 88 12 45 20 83 19 84 -2 1 -24 14 -50 29 l-48 28 0 -156 0 -155 -31 -36 -31 -35 -120 0 c-119 0 -120 0 -149 29 -16 16 -30 37 -30 45 -1 9 -2 22 -3 29 -4 28 19 70 48 88 24 15 50 19 119 19 l87 0 0 158 c0 165 4 182 45 182 11 0 83 -42 160 -93z m963 -47 c1 0 2 -47 2 -105 l0 -106 -82 3 -83 3 0 100 0 100 30 7 c23 5 102 4 133 -2z m0 -497 l2 -183 -60 0 -60 0 0 -139 c0 -122 -2 -140 -17 -145 -10 -4 -65 -6 -123 -5 l-105 2 -3 -150 -2 -149 -60 -62 -59 -63 -112 3 -112 3 -2 50 -1 50 -157 3 -156 3 -3 -53 -3 -53 -64 -3 -64 -3 -181 180 -181 181 0 100 0 101 151 149 150 150 482 0 482 0 0 -78 0 -77 -190 -190 -190 -190 -225 0 -225 0 -70 70 -70 70 94 94 95 94 77 -69 77 -69 -101 -5 -101 -5 40 -42 41 -43 154 0 c153 0 154 0 154 23 0 16 -47 64 -169 175 -93 83 -173 152 -177 152 -12 0 -304 -293 -304 -304 0 -6 48 -59 107 -118 l108 -108 268 0 268 0 215 214 214 214 0 199 c0 110 3 203 7 207 4 4 41 5 83 4 l75 -3 3 -182z m172 -285 c0 -15 -32 -55 -97 -120 -54 -54 -101 -98 -105 -98 -5 0 -8 54 -8 120 l0 120 105 0 c102 0 105 -1 105 -22z m-245 -383 l0 -120 -105 0 -105 0 -3 109 c-1 61 -1 115 1 120 3 7 44 11 108 11 l104 -1 0 -119z m-1323 -141 c24 -25 43 -51 43 -57 0 -7 -21 -11 -55 -12 -50 0 -54 2 -53 23 0 12 1 38 2 57 1 19 5 35 10 35 6 0 29 -21 53 -46z m596 -48 c5 -23 -124 -156 -150 -156 -16 0 -18 10 -18 83 0 46 3 87 7 91 4 4 41 5 83 4 63 -3 75 -7 78 -22z"/></g><g transform="translate(0.000000,240.000000) scale(0.100000,-0.100000)" fill="currentColor" fill-opacity="0.35"><path d="M1585 2174 c-11 -3 -35 -22 -53 -42 -29 -32 -32 -41 -29 -87 3 -49 16 -79 64 -144 16 -22 18 -53 21 -249 2 -124 1 -235 -2 -248 -3 -12 -16 -26 -29 -30 -36 -11 -658 -7 -690 5 l-28 11 23 41 c13 23 39 53 58 68 49 37 130 121 161 167 37 55 30 109 -21 162 -39 42 -161 127 -243 169 -53 28 -73 30 -133 14 -59 -16 -84 -70 -88 -191 -2 -79 -5 -93 -25 -112 -14 -13 -39 -22 -62 -23 -48 -3 -111 -44 -140 -92 -26 -42 -32 -120 -11 -162 8 -17 30 -43 50 -58 19 -16 41 -34 48 -40 7 -7 19 -13 27 -13 8 0 18 -8 21 -17 7 -17 -8 -35 -154 -181 -74 -75 -100 -118 -100 -166 0 -19 -5 -36 -12 -38 -17 -6 4 -119 38 -204 24 -60 27 -80 25 -161 -2 -70 2 -99 15 -125 9 -18 17 -35 17 -38 0 -3 13 -13 29 -23 24 -14 59 -18 196 -21 92 -2 179 -8 194 -14 14 -6 40 -29 58 -51 33 -40 66 -56 110 -52 35 4 58 18 107 62 24 22 53 40 65 40 13 1 64 3 113 4 148 3 202 17 256 68 14 14 34 27 45 30 40 12 94 17 94 8 0 -5 35 -7 77 -5 83 4 156 31 174 65 5 10 7 19 5 19 -3 0 -1 12 5 27 5 15 10 58 10 97 0 78 12 107 61 152 74 68 158 165 158 183 0 10 3 33 6 50 6 27 2 36 -30 65 -20 18 -54 38 -76 45 -25 7 -41 19 -46 34 -4 12 -7 172 -6 355 1 313 2 335 21 370 57 106 62 122 56 166 -5 30 -18 56 -40 80 l-32 36 -84 -5 c-46 -3 -88 -5 -94 -5 -5 0 -44 2 -85 4 -41 3 -84 2 -95 0z m126 -49 c38 -13 51 -13 96 -2 57 15 108 13 130 -4 7 -6 18 -28 24 -49 11 -36 9 -43 -27 -112 l-39 -73 0 -371 c0 -350 1 -373 19 -393 10 -11 34 -23 52 -27 18 -3 45 -17 59 -30 47 -43 25 -88 -105 -214 -77 -74 -92 -106 -96 -209 -4 -88 -17 -121 -55 -141 -12 -7 -78 -12 -153 -13 l-132 -2 -50 -40 c-27 -23 -60 -46 -74 -51 -14 -6 -82 -11 -152 -12 -126 -1 -163 -9 -200 -45 -31 -30 -78 -57 -100 -57 -15 0 -41 18 -72 50 -36 38 -56 50 -80 51 -17 1 -42 3 -56 5 -14 2 -71 4 -127 4 -121 2 -169 11 -197 40 -18 18 -22 36 -27 138 -4 97 -9 125 -29 162 -18 35 -25 65 -28 136 -6 119 4 137 161 293 72 71 127 134 130 148 5 28 -16 45 -81 64 -64 19 -102 67 -102 130 0 28 7 60 16 74 18 27 77 65 101 65 9 0 34 5 55 12 65 19 70 33 77 229 2 54 38 89 93 89 37 0 59 -10 148 -71 58 -38 117 -82 132 -96 30 -29 41 -69 26 -98 -21 -40 -84 -109 -142 -158 -55 -45 -116 -116 -116 -134 0 -5 -7 -21 -16 -38 -28 -54 -23 -55 412 -55 l393 0 28 24 28 24 0 254 0 253 -42 67 c-59 92 -57 149 5 182 35 19 58 20 113 1z M1584 2086 c-3 -8 -4 -29 -1 -48 3 -30 4 -29 5 9 l2 42 63 4 62 3 -63 2 c-46 1 -64 -2 -68 -12z M1850 2093 c0 -6 5 -15 11 -18 21 -13 -24 -32 -83 -34 -53 -2 -60 0 -65 18 -5 18 -13 21 -59 21 l-54 0 0 -33 c0 -24 8 -41 28 -58 15 -14 31 -25 36 -24 9 0 30 -44 28 -57 -1 -5 30 -8 68 -8 39 0 69 4 68 9 -5 16 81 103 94 94 7 -4 5 5 -5 21 -10 15 -16 30 -13 33 3 4 0 13 -7 21 -9 13 -9 14 1 8 6 -4 12 -2 12 3 0 15 -27 14 -33 -1 -4 -10 -8 -9 -16 2 -7 9 -11 10 -11 3z m-189 -71 c-12 -2 -21 -8 -21 -13 0 -5 -4 -9 -10 -9 -9 0 -11 46 -3 62 2 4 15 -3 29 -15 25 -21 25 -22 5 -25z m94 7 c26 -2 25 -3 -10 -8 -43 -7 -62 0 -50 19 5 8 10 9 18 1 6 -6 25 -12 42 -12z m93 -9 c6 0 12 -4 12 -10 0 -5 -9 -10 -20 -10 -11 0 -20 4 -20 9 0 5 -6 11 -12 14 -7 2 -4 3 7 1 11 -2 26 -4 33 -4z m-88 -46 c0 -17 -12 -18 -28 -2 -8 8 -12 8 -12 1 0 -6 6 -13 14 -16 9 -4 12 -14 9 -26 -6 -24 -25 -18 -21 7 2 9 -8 21 -21 28 l-24 12 24 4 c51 7 59 6 59 -8z m60 -15 c0 -25 -26 -25 -40 0 -7 14 -6 21 3 24 20 7 37 -4 37 -24z M713 1943 c9 -2 23 -2 30 0 6 3 -1 5 -18 5 -16 0 -22 -2 -12 -5z M684 1775 c0 -88 2 -123 3 -77 2 46 2 118 0 160 -1 42 -3 5 -3 -83z M1753 1813 c9 -2 25 -2 35 0 9 3 1 5 -18 5 -19 0 -27 -2 -17 -5z M1682 1755 c0 -16 2 -22 5 -12 2 9 2 23 0 30 -3 6 -5 -1 -5 -18z M782 1700 c0 -14 2 -19 5 -12 2 6 2 18 0 25 -3 6 -5 1 -5 -13z M1683 1675 c0 -27 2 -38 4 -22 2 15 2 37 0 50 -2 12 -4 0 -4 -28z M782 1620 c0 -14 2 -19 5 -12 2 6 2 18 0 25 -3 6 -5 1 -5 -13z M543 1603 c26 -2 67 -2 90 0 23 2 2 3 -48 3 -49 0 -68 -1 -42 -3z M894 1588 l-19 -23 23 19 c21 18 27 26 19 26 -2 0 -12 -10 -23 -22z M449 1573 c-13 -16 -12 -17 4 -4 9 7 17 15 17 17 0 8 -8 3 -21 -13z M782 1540 c0 -14 2 -19 5 -12 2 6 2 18 0 25 -3 6 -5 1 -5 -13z M455 1430 c10 -11 20 -20 23 -20 3 0 -3 9 -13 20 -10 11 -20 20 -23 20 -3 0 3 -9 13 -20z M470 1123 l-145 -148 148 145 c81 80 147 146 147 147 0 8 -16 -7 -150 -144z M875 1130 c10 -11 20 -20 23 -20 3 0 -3 9 -13 20 -10 11 -20 20 -23 20 -3 0 3 -9 13 -20z M1723 1040 c0 -25 2 -35 4 -22 2 12 2 32 0 45 -2 12 -4 2 -4 -23z M801 1067 c2 -1 13 -9 24 -17 19 -14 19 -14 6 3 -7 9 -18 17 -24 17 -6 0 -8 -1 -6 -3z M950 1067 c0 -2 15 -16 33 -33 l32 -29 -29 33 c-28 30 -36 37 -36 29z M1838 1043 c18 -2 45 -2 60 0 15 2 0 4 -33 4 -33 0 -45 -2 -27 -4z M1980 1039 c0 -6 -8 -18 -17 -27 -16 -16 -16 -16 -10 0 5 15 -2 17 -59 17 -43 0 -64 -4 -64 -12 0 -7 -4 -6 -10 3 -7 10 -10 -21 -10 -97 0 -62 3 -113 8 -113 4 0 43 36 87 80 44 44 76 80 71 80 -5 0 -1 9 9 20 10 11 22 17 26 14 5 -3 9 2 9 11 0 9 -4 13 -10 10 -5 -3 -10 1 -10 9 0 9 -4 16 -10 16 -5 0 -10 -5 -10 -11z m-53 -70 c-13 -21 -12 -21 -44 -24 -13 -1 -23 2 -23 6 0 20 -29 7 -33 -13 -3 -17 -5 -15 -6 8 -1 34 25 56 35 29 9 -22 41 -18 47 5 3 13 11 18 21 14 12 -5 13 -9 3 -25z m-27 -74 c-41 -41 -76 -75 -77 -75 -2 0 -3 15 -2 33 1 30 1 31 9 7 l8 -25 1 28 c1 26 16 37 23 17 2 -6 25 12 53 40 27 27 52 50 54 50 3 0 -28 -34 -69 -75z M910 975 c13 -14 26 -25 28 -25 3 0 -5 11 -18 25 -13 14 -26 25 -28 25 -3 0 5 -11 18 -25z M1080 945 c13 -14 26 -25 28 -25 3 0 -5 11 -18 25 -13 14 -26 25 -28 25 -3 0 5 -11 18 -25z M323 880 c0 -47 2 -66 4 -42 2 23 2 61 0 85 -2 23 -4 4 -4 -43z M1723 920 c0 -25 2 -35 4 -22 2 12 2 32 0 45 -2 12 -4 2 -4 -23z M760 917 c0 -2 15 -16 33 -33 l32 -29 -29 33 c-28 30 -36 37 -36 29z M1474 837 c-2 -7 -3 -78 -2 -157 l3 -145 5 158 c3 86 4 157 2 157 -1 0 -5 -6 -8 -13z M1553 843 c32 -2 81 -2 110 0 29 2 3 3 -58 3 -60 0 -84 -1 -52 -3z M500 605 c96 -96 177 -175 180 -175 3 0 -74 79 -170 175 -96 96 -177 175 -180 175 -3 0 74 -79 170 -175z M1688 763 c6 -2 18 -2 25 0 6 3 1 5 -13 5 -14 0 -19 -2 -12 -5z M853 743 c9 -2 25 -2 35 0 9 3 1 5 -18 5 -19 0 -27 -2 -17 -5z M968 743 c6 -2 18 -2 25 0 6 3 1 5 -13 5 -14 0 -19 -2 -12 -5z M1048 743 c6 -2 18 -2 25 0 6 3 1 5 -13 5 -14 0 -19 -2 -12 -5z M1128 743 c6 -2 18 -2 25 0 6 3 1 5 -13 5 -14 0 -19 -2 -12 -5z M1612 730 c-12 -11 -28 -17 -36 -14 -11 4 -16 0 -16 -15 0 -12 5 -21 10 -21 15 0 12 -40 -2 -40 -7 0 -4 -6 6 -12 15 -8 21 -8 24 0 5 15 22 16 22 2 0 -19 -24 -37 -42 -32 -14 3 -18 -2 -18 -22 0 -16 4 -25 10 -21 6 3 10 1 10 -4 0 -6 5 -11 10 -11 6 0 10 9 10 20 0 11 5 20 10 20 6 0 9 -3 9 -7 -5 -31 3 -34 74 -32 l74 3 2 48 c2 38 -1 48 -14 48 -9 0 -15 9 -15 23 1 21 1 22 15 3 14 -18 15 -15 14 35 -1 43 -3 48 -8 24 -5 -25 -8 -27 -14 -12 -4 11 -5 22 -3 26 3 4 -21 8 -53 9 -45 1 -62 -3 -79 -18z m78 -20 c0 -5 -6 -10 -14 -10 -8 0 -18 5 -21 10 -3 6 3 10 14 10 12 0 21 -4 21 -10z m-79 -53 c-8 -8 -11 -3 -11 19 1 25 2 27 11 11 8 -14 8 -22 0 -30z m100 -17 c5 0 9 -7 9 -15 0 -13 -4 -14 -20 -5 -16 9 -20 8 -20 -5 0 -8 -4 -15 -10 -15 -5 0 -10 9 -10 20 0 11 -4 20 -10 20 -5 0 -10 5 -10 11 0 6 9 9 19 6 12 -3 23 1 27 12 6 13 8 12 11 -6 3 -13 9 -23 14 -23z m49 -42 c0 -19 -2 -20 -10 -8 -13 19 -13 30 0 30 6 0 10 -10 10 -22z m-55 -28 c3 -5 -3 -10 -15 -10 -12 0 -18 5 -15 10 3 6 10 10 15 10 5 0 12 -4 15 -10z M848 653 c72 -2 192 -2 265 0 72 1 13 3 -133 3 -146 0 -205 -2 -132 -3z M817 533 c-4 -3 -7 -28 -7 -54 l0 -48 -62 -4 -63 -4 65 1 65 1 3 53 3 53 159 -3 c87 -2 156 0 153 5 -5 9 -307 10 -316 0z M1583 523 c9 -2 23 -2 30 0 6 3 -1 5 -18 5 -16 0 -22 -2 -12 -5z M1653 523 c9 -2 23 -2 30 0 6 3 -1 5 -18 5 -16 0 -22 -2 -12 -5z M1733 523 c9 -2 23 -2 30 0 6 3 -1 5 -18 5 -16 0 -22 -2 -12 -5z M400 485 l0 -36 50 2 c27 2 47 5 44 8 -3 3 -11 6 -17 6 -7 1 -10 7 -9 15 2 8 1 12 -3 8 -4 -4 -16 2 -28 13 -30 27 -37 24 -37 -16z M1131 494 c0 -11 3 -14 6 -6 3 7 2 16 -1 19 -3 4 -6 -2 -5 -13z M913 473 c15 -2 39 -2 55 0 15 2 2 4 -28 4 -30 0 -43 -2 -27 -4z M1013 473 c-7 -2 -13 -13 -13 -23 0 -13 -5 -17 -20 -13 -11 3 -20 9 -20 14 0 5 -18 9 -41 9 -36 0 -40 -2 -33 -17 8 -20 9 -47 1 -105 -6 -54 17 -50 78 12 27 28 45 50 41 50 -5 0 -1 9 9 20 9 10 15 26 12 35 -4 8 -2 15 3 15 5 0 11 -10 13 -22 5 -21 5 -21 4 1 -2 25 -13 33 -34 24z m-53 -63 c0 -5 -7 -10 -16 -10 -8 0 -12 5 -9 10 3 6 10 10 16 10 5 0 9 -4 9 -10z m0 -55 c-24 -25 -49 -45 -55 -45 -5 0 5 13 24 29 25 20 30 30 20 33 -8 3 -10 9 -6 14 4 5 12 3 16 -4 6 -10 11 -10 21 3 7 8 15 15 18 15 4 0 -14 -20 -38 -45z M1394 458 l-19 -23 23 19 c21 18 27 26 19 26 -2 0 -12 -10 -23 -22z M388 438 c6 -6 18 -8 28 -6 14 3 12 5 -9 10 -19 3 -25 2 -19 -4z M1139 427 c4 -4 57 -6 117 -5 l109 3 -117 5 c-64 3 -114 1 -109 -3z"/></g></svg>